<?xml version="1.0" encoding="utf-8"?>
<!-- Generator: Adobe Illustrator 25.0.0, SVG Export Plug-In . SVG Version: 6.00 Build 0)  -->
<svg version="1.1" id="Calque_1" xmlns="http://www.w3.org/2000/svg" xmlns:xlink="http://www.w3.org/1999/xlink" x="0px" y="0px"
	 viewBox="0 0 20.8 19.3" style="enable-background:new 0 0 20.8 19.3;" xml:space="preserve">
<style type="text/css">
	.st0{fill:none;stroke:#000000;stroke-linecap:round;stroke-linejoin:round;stroke-miterlimit:10;}
</style>
<g>
	<path class="st0" d="M1.3,9.7"/>
	<path class="st0" d="M19.6,9.7"/>
	<path d="M10.5,19.3c-0.2,0-0.3-0.1-0.4-0.2l-2.4-3.4H0.5c-0.3,0-0.5-0.2-0.5-0.5V4.1c0-0.3,0.2-0.5,0.5-0.5h19.8
		c0.3,0,0.5,0.2,0.5,0.5v11.2c0,0.3-0.2,0.5-0.5,0.5h-7l-2.4,3.4C10.8,19.3,10.6,19.3,10.5,19.3z M1,14.8h6.9c0.2,0,0.3,0.1,0.4,0.2
		l2.2,3l2.2-3c0.1-0.1,0.2-0.2,0.4-0.2h6.8V4.6H1V14.8z"/>
	<path class="st0" d="M1.3,9.7"/>
	<path class="st0" d="M19.6,9.7"/>
</g>
<path d="M10.4,10.5L10.4,10.5c-0.5,0-0.9-0.4-0.9-0.9v0c0-0.5,0.4-0.9,0.9-0.9h0c0.5,0,0.9,0.4,0.9,0.9v0
	C11.2,10.2,10.9,10.5,10.4,10.5z"/>
<path d="M14.4,10.5L14.4,10.5c-0.5,0-0.9-0.4-0.9-0.9v0c0-0.5,0.4-0.9,0.9-0.9h0c0.5,0,0.9,0.4,0.9,0.9v0
	C15.2,10.2,14.9,10.5,14.4,10.5z"/>
<path d="M6.4,10.5L6.4,10.5c-0.5,0-0.9-0.4-0.9-0.9v0c0-0.5,0.4-0.9,0.9-0.9h0c0.5,0,0.9,0.4,0.9,0.9v0C7.2,10.2,6.9,10.5,6.4,10.5z
	"/>
</svg>
