<?xml version="1.0" encoding="utf-8"?>
<!-- Generator: Adobe Illustrator 25.0.0, SVG Export Plug-In . SVG Version: 6.00 Build 0)  -->
<svg version="1.1" id="Calque_1" xmlns="http://www.w3.org/2000/svg" xmlns:xlink="http://www.w3.org/1999/xlink" x="0px" y="0px"
	 viewBox="0 0 82 36" style="enable-background:new 0 0 82 36;" xml:space="preserve">
<path d="M6,3c0,0.6,0.4,1,1,1h16V2H7C6.4,2,6,2.4,6,3z"/>
<path d="M0,33c0,0.6,0.4,1,1,1h22v-2H1C0.4,32,0,32.4,0,33z"/>
<path d="M3,18c0,0.6,0.4,1,1,1h19v-2H4C3.4,17,3,17.4,3,18z"/>
<path d="M81,0H29c-0.6,0-1,0.4-1,1v34c0,0.6,0.4,1,1,1h52c0.6,0,1-0.4,1-1V1C82,0.4,81.6,0,81,0z M78.7,2L55.8,24.9
	c-0.4,0.4-1,0.4-1.4,0L31.4,2H78.7z M80,34H30V3.4l24.3,24.4c0.4,0.4,1,0.4,1.4,0L80,3.5V34z"/>
</svg>
